<?xml version="1.0" encoding="UTF-8" standalone="no"?>
<!-- Created with Inkscape (http://www.inkscape.org/) -->

<svg
   xmlns:dc="http://purl.org/dc/elements/1.1/"
   xmlns:cc="http://creativecommons.org/ns#"
   xmlns:rdf="http://www.w3.org/1999/02/22-rdf-syntax-ns#"
   xmlns:svg="http://www.w3.org/2000/svg"
   xmlns="http://www.w3.org/2000/svg"
   xmlns:sodipodi="http://sodipodi.sourceforge.net/DTD/sodipodi-0.dtd"
   xmlns:inkscape="http://www.inkscape.org/namespaces/inkscape"
   width="100"
   height="100"
   id="svg2"
   version="1.1"
   inkscape:version="0.48.4 r9939"
   sodipodi:docname="icon.svg"
   inkscape:export-filename="D:\Codings\tic-tac-toe\favicon.ico.png"
   inkscape:export-xdpi="14.4"
   inkscape:export-ydpi="14.4">
  <defs
     id="defs4" />
  <sodipodi:namedview
     id="base"
     pagecolor="#ffffff"
     bordercolor="#666666"
     borderopacity="1.0"
     inkscape:pageopacity="0.0"
     inkscape:pageshadow="2"
     inkscape:zoom="4"
     inkscape:cx="44.716788"
     inkscape:cy="39.702465"
     inkscape:document-units="px"
     inkscape:current-layer="layer1"
     showgrid="true"
     inkscape:snap-grids="false"
     inkscape:window-width="1366"
     inkscape:window-height="716"
     inkscape:window-x="-8"
     inkscape:window-y="-8"
     inkscape:window-maximized="1"
     inkscape:snap-page="true"
     inkscape:snap-bbox="true">
    <inkscape:grid
       type="xygrid"
       id="grid2985"
       empspacing="3"
       visible="true"
       enabled="true"
       snapvisiblegridlinesonly="true"
       spacingx="10px"
       spacingy="10px"
       color="#0000ff"
       opacity="0.03921569"
       empcolor="#0000ff"
       empopacity="0.15686275"
       originx="5px"
       originy="5px" />
  </sodipodi:namedview>
  <metadata
     id="metadata7">
    <rdf:RDF>
      <cc:Work
         rdf:about="">
        <dc:format>image/svg+xml</dc:format>
        <dc:type
           rdf:resource="http://purl.org/dc/dcmitype/StillImage" />
      </cc:Work>
    </rdf:RDF>
  </metadata>
  <g
     inkscape:label="Camada 1"
     inkscape:groupmode="layer"
     id="layer1"
     transform="translate(0,-952.36218)">
    <rect
       style="color:#000000;fill:#000000;fill-opacity:1;fill-rule:nonzero;stroke:none;stroke-width:1;marker:none;visibility:visible;display:inline;overflow:visible;enable-background:accumulate"
       id="rect2987-7"
       width="90"
       height="90"
       x="7.8284302"
       y="960.36707"
       ry="10" />
    <rect
       style="color:#000000;fill:#f6f5f5;fill-opacity:1;fill-rule:nonzero;stroke:#000000;stroke-width:1;stroke-linecap:square;stroke-linejoin:bevel;stroke-miterlimit:4;stroke-opacity:1;stroke-dasharray:none;stroke-dashoffset:0;marker:none;visibility:visible;display:inline;overflow:visible;enable-background:accumulate"
       id="rect2987"
       width="90"
       height="90"
       x="5"
       y="5"
       ry="10"
       transform="translate(0,952.36218)" />
    <path
       style="font-size:medium;font-style:normal;font-variant:normal;font-weight:normal;font-stretch:normal;text-indent:0;text-align:start;text-decoration:none;line-height:normal;letter-spacing:normal;word-spacing:normal;text-transform:none;direction:ltr;block-progression:tb;writing-mode:lr-tb;text-anchor:start;baseline-shift:baseline;color:#000000;fill:#000000;fill-opacity:1;stroke:none;stroke-width:1px;marker:none;visibility:visible;display:inline;overflow:visible;enable-background:accumulate;font-family:Sans;-inkscape-font-specification:Sans"
       d="M 34.5 5 L 34.5 34.5 L 5 34.5 L 5 35.5 L 34.5 35.5 L 34.5 64.5 L 5 64.5 L 5 65.5 L 34.5 65.5 L 34.5 95 L 35.5 95 L 35.5 65.5 L 64.5 65.5 L 64.5 95 L 65.5 95 L 65.5 65.5 L 95 65.5 L 95 64.5 L 65.5 64.5 L 65.5 35.5 L 95 35.5 L 95 34.5 L 65.5 34.5 L 65.5 5 L 64.5 5 L 64.5 34.5 L 35.5 34.5 L 35.5 5 L 34.5 5 z M 35.5 35.5 L 64.5 35.5 L 64.5 64.5 L 35.5 64.5 L 35.5 35.5 z "
       id="path3757"
       transform="translate(0,952.36218)" />
    <path
       style="font-size:medium;font-style:normal;font-variant:normal;font-weight:normal;font-stretch:normal;text-indent:0;text-align:start;text-decoration:none;line-height:normal;letter-spacing:normal;word-spacing:normal;text-transform:none;direction:ltr;block-progression:tb;writing-mode:lr-tb;text-anchor:start;baseline-shift:baseline;color:#000000;fill:#ff3a00;fill-opacity:1;stroke:none;stroke-width:5;marker:none;visibility:visible;display:inline;overflow:visible;enable-background:accumulate;font-family:Sans;-inkscape-font-specification:Sans"
       d="m 67.457061,969.39535 c -1.678981,6.8547 2.551527,13.83 9.406299,15.509 6.854771,1.679 13.830019,-2.5516 15.509,-9.4064 1.678981,-6.8547 -2.551527,-13.83 -9.406298,-15.509 -6.854772,-1.679 -13.83002,2.5516 -15.509001,9.4064 z m 4.268134,1.0454 c 1.113988,-4.5481 5.647378,-7.2976 10.195436,-6.1836 4.548058,1.114 7.297584,5.6474 6.183596,10.1954 -1.113989,4.5481 -5.647378,7.2976 -10.195436,6.1836 -4.548059,-1.114 -7.297585,-5.6474 -6.183596,-10.1954 z"
       id="path3802"
       inkscape:connector-curvature="0" />
    <path
       style="color:#000000;fill:#0080ff;fill-opacity:1;stroke:none;stroke-width:1;marker:none;visibility:visible;display:inline;overflow:visible;enable-background:accumulate"
       d="m 41.240062,989.35237 -4.09375,4.09375 8.5625,8.56248 -8.5625,8.5625 4.09375,4.0937 8.5625,-8.5625 8.5625,8.5625 4.09375,-4.0937 -8.5625,-8.5625 8.5625,-8.56248 -4.09375,-4.09375 -8.5625,8.5625 -8.5625,-8.5625 z"
       id="rect3806"
       inkscape:connector-curvature="0" />
  </g>
</svg>
